<svg height="2500" viewBox="-.226 .99786345 18.452 16.00255017" width="2500" xmlns="http://www.w3.org/2000/svg"><path d="m3.802 14.032c.388.242 1.033.511 1.715.511.621 0 1.198-.18 1.676-.487l.002-.001 1.805-1.128v4.073a1.56 1.56 0 0 1 -.824-.234z" fill="#225086"/><path d="m7.853 1.507-7.5 8.46c-.579.654-.428 1.642.323 2.111l3.126 1.954c.388.242 1.033.511 1.715.511.621 0 1.198-.18 1.676-.487l.002-.001 1.805-1.128-4.364-2.728 4.365-4.924v-4.275c-.424 0-.847.169-1.147.507z" fill="#6df"/><path d="m4.636 10.199.052.032 4.312 2.696h.001v-7.651l-.001-.001z" fill="#cbf8ff"/><path d="m17.324 12.078c.751-.469.902-1.457.323-2.111l-4.921-5.551a3.102 3.102 0 0 0 -1.313-.291c-.925 0-1.752.399-2.302 1.026l-.109.123 4.364 4.924-4.365 2.728v4.073c.287 0 .573-.078.823-.234l7.5-4.688z" fill="#074793"/><path d="m9.001 1v4.275l.109-.123a3.053 3.053 0 0 1 2.302-1.026c.472 0 .916.107 1.313.291l-2.579-2.909a1.524 1.524 0 0 0 -1.146-.507z" fill="#0294e4"/><path d="m13.365 10.199-4.364-4.923v7.65z" fill="#96bcc2"/></svg>