<?xml version="1.0" encoding="utf-8"?>
<!-- Generator: Adobe Illustrator 16.0.3, SVG Export Plug-In . SVG Version: 6.00 Build 0)  -->
<!DOCTYPE svg PUBLIC "-//W3C//DTD SVG 1.1//EN" "http://www.w3.org/Graphics/SVG/1.1/DTD/svg11.dtd">
<svg version="1.1" id="Ebene_1" xmlns="http://www.w3.org/2000/svg" xmlns:xlink="http://www.w3.org/1999/xlink" x="0px" y="0px"
	 width="595.218px" height="105.107px" viewBox="0 368.391 595.218 105.107" enable-background="new 0 368.391 595.218 105.107"
	 xml:space="preserve">
<title>Asset 2</title>
<g id="Layer_2">
	<g id="Layer_1-2">
		<path fill="#2F466B" d="M43.433,413.809c4.092-5.025,7.667-10.451,10.672-16.194H37.229l0.931-3.847
			c1.179-5.771,3.475-8.687,11.913-8.687h6.763l3.475-16.69c-2.234,0-4.468,0-10.672,0c-20.041,0-27.425,6.825-31.023,23.329
			l-1.303,6.205H3.723L0,414.802h13.712L1.303,473.499c0,0,17.311-4.032,19.358-4.715c1.204-0.462,2.076-1.522,2.296-2.792
			l10.92-51.189C37.097,415.141,40.352,414.803,43.433,413.809"/>
		<path fill="#2F466B" d="M93.071,440.118c-2.606,11.913-6.205,15.14-17.063,15.14s-12.41-2.606-12.41-6.825
			c0-9.369,6.205-11.045,20.91-11.045h9.245L93.071,440.118z M111.002,446.881l4.095-19.606
			c4.219-20.414,2.419-31.023-28.107-31.023c-10.362-0.254-20.623,2.093-29.845,6.825l7.321,14.953
			c5.86-2.638,12.19-4.072,18.614-4.22c11.541,0,14.147,1.924,14.147,5.771c0.012,1.385-0.176,2.765-0.559,4.096h-9.245
			c-26.432-0.124-43.991,5.273-43.991,26.929c0,12.409,5.584,20.785,26.928,20.785c8.304,0.835,16.568-1.92,22.709-7.569
			c1.427,5.522,4.033,6.701,10.796,6.701c2.887,0.158,5.782-0.029,8.625-0.559l3.599-16.381c-6.205,0-6.205-1.551-4.902-6.701"/>
		<path fill="#2F466B" d="M232.243,397.615l4.467-21.592c0,0-18.986,1.303-21.22,8.004c-0.435,1.241-1.241,4.653-3.227,13.588
			h-12.037l-3.723,17.188h11.913l-6.515,30.651c-3.351,16.194,0,24.819,20.104,24.819c3.599,0,8.376,0,11.292-0.311l3.599-16.753
			h-7.322c-8.625,0-8.873-3.103-7.632-8.749l6.205-29.906c3.138,0.31,6.305-0.028,9.307-0.993
			c4.136-5.033,7.772-10.457,10.858-16.194L232.243,397.615z"/>
		<path fill="#2F466B" d="M511.703,397.615l4.529-21.592c0,0-18.986,1.303-21.281,8.004c-0.373,1.241-1.18,4.653-3.164,13.588
			h-12.039l-3.723,17.188h11.914l-6.205,30.651c-3.35,16.194,0,24.819,20.104,24.819c3.598,0,8.377,0,11.293-0.311l3.598-16.753
			h-7.508c-8.563,0-8.811-3.103-7.568-8.749l6.203-29.906c3.117,0.312,6.266-0.026,9.246-0.993
			c4.174-5.019,7.832-10.443,10.92-16.194L511.703,397.615z"/>
		<path fill="#2F466B" d="M296.151,395.94c-6.711-0.334-13.318,1.759-18.614,5.895l6.577-31.023c0,0-18.986,1.303-21.282,8.004
			c-0.869,2.668-19.917,91.52-19.917,91.52h20.166l8.687-40.889c1.675-8.19,4.653-14.396,15.512-14.396
			c14.27,0,12.844,6.949,11.043,15.946l-8.313,39.338h20.228l8.996-41.571c3.723-18.056,3.971-32.699-22.957-32.699"/>
		<path fill="#2F466B" d="M380.412,436.023c-2.545,12.409-7.445,18.613-19.111,18.613c-11.664,0-14.768-5.273-14.768-12.968
			c0.012-2.899,0.322-5.789,0.932-8.624c2.543-12.41,7.445-18.614,19.234-18.614s14.643,5.397,14.643,13.216
			c-0.07,2.861-0.424,5.709-1.055,8.501 M402.128,424.668c0-17.187-9.805-28.604-34.127-28.604c-21.84,0-35.43,9.617-40.703,34.002
			c-0.814,4.212-1.23,8.492-1.24,12.782c0,17.311,9.74,28.852,34.064,28.852c21.963,0,35.428-9.741,40.578-34.126
			c0.912-4.267,1.432-8.607,1.551-12.968"/>
		<path fill="#2F466B" d="M441.216,413.561c7.301,0.055,14.43,2.209,20.539,6.205l12.408-15.016
			c-9.27-5.858-20.059-8.858-31.023-8.624c-19.234,0-32.449,6.825-32.449,25.936c0,13.712,12.408,17.187,22.832,19.606
			c7.197,1.8,13.588,3.103,13.588,7.446c0,5.646-3.723,6.204-10.484,6.204c-9.174-0.421-18.02-3.527-25.439-8.935l-12.41,13.713
			c10.188,7.765,22.752,11.756,35.553,11.292c19.67,0,32.885-5.771,32.885-24.818c0-13.837-11.664-17.188-22.957-20.104
			c-8.004-1.985-12.967-3.227-12.967-7.322c0-4.095,2.668-5.646,9.74-5.646"/>
		<path fill="#2F466B" d="M161.633,413.561c7.301,0.044,14.434,2.199,20.538,6.205l12.409-15.016
			c-9.27-5.858-20.06-8.858-31.023-8.624c-19.234,0-32.451,6.825-32.451,25.936c0,13.712,12.41,17.187,22.833,19.606
			c7.384,1.613,13.588,2.917,13.588,7.384c0,5.646-3.723,6.205-10.486,6.205c-9.155-0.411-17.984-3.52-25.377-8.935l-12.41,13.712
			c10.265,7.852,22.951,11.868,35.863,11.354c19.607,0,32.823-5.771,32.823-24.818c0-13.837-11.665-17.188-22.958-20.104
			c-7.942-1.985-12.968-3.227-12.968-7.322c0-4.095,2.668-5.646,9.741-5.646"/>
		<path fill="#2F466B" d="M565.498,426.529c-7.941-1.985-12.967-3.226-12.967-7.321c0-4.095,2.729-5.646,9.74-5.646
			c7.301,0.044,14.434,2.199,20.537,6.205l12.41-15.016c-9.27-5.858-20.061-8.858-31.023-8.624
			c-19.234,0-32.451,6.824-32.451,25.936c0,13.712,12.41,17.187,22.834,19.606c7.197,1.8,13.588,3.103,13.588,7.446
			c0,5.646-3.723,6.204-10.486,6.204c-9.154-0.411-17.984-3.52-25.377-8.935l-12.41,13.713c10.158,7.849,22.725,11.928,35.555,11.54
			c19.605,0,32.822-5.771,32.822-24.818c0-13.837-11.664-17.188-22.957-20.104"/>
	</g>
</g>
</svg>
